<?xml version="1.0" encoding="UTF-8" standalone="no"?>
<svg
   xmlns:osb="http://www.openswatchbook.org/uri/2009/osb"
   xmlns:dc="http://purl.org/dc/elements/1.1/"
   xmlns:cc="http://creativecommons.org/ns#"
   xmlns:rdf="http://www.w3.org/1999/02/22-rdf-syntax-ns#"
   xmlns:svg="http://www.w3.org/2000/svg"
   xmlns="http://www.w3.org/2000/svg"
   xmlns:xlink="http://www.w3.org/1999/xlink"
   xmlns:sodipodi="http://sodipodi.sourceforge.net/DTD/sodipodi-0.dtd"
   xmlns:inkscape="http://www.inkscape.org/namespaces/inkscape"
   width="1280"
   height="1280"
   viewBox="0 0 338.66667 338.66667"
   version="1.1"
   id="svg917"
   inkscape:version="1.0.1 (3bc2e813f5, 2020-09-07)"
   sodipodi:docname="drawing.svg">
  <defs
     id="defs911">
    <linearGradient
       inkscape:collect="always"
       id="linearGradient3715">
      <stop
         style="stop-color:#ff8003;stop-opacity:1;"
         offset="0"
         id="stop3711" />
      <stop
         style="stop-color:#ff6600;stop-opacity:1"
         offset="0.46686161"
         id="stop3719" />
      <stop
         style="stop-color:#ff0000;stop-opacity:0.85943776"
         offset="0.78898633"
         id="stop3721" />
      <stop
         style="stop-color:#ff8003;stop-opacity:0.377"
         offset="1"
         id="stop3713" />
    </linearGradient>
    <linearGradient
       id="linearGradient3518"
       osb:paint="solid">
      <stop
         style="stop-color:#ff8003;stop-opacity:1;"
         offset="0"
         id="stop3516" />
    </linearGradient>
    <rect
       x="107.95"
       y="95.779167"
       width="106.89167"
       height="49.741669"
       id="rect945" />
    <linearGradient
       inkscape:collect="always"
       xlink:href="#linearGradient3715"
       id="linearGradient3717"
       x1="158.75"
       y1="288.39584"
       x2="158.75"
       y2="16.933334"
       gradientUnits="userSpaceOnUse"
       gradientTransform="translate(11.1125,16.933334)" />
  </defs>
  <sodipodi:namedview
     id="base"
     pagecolor="#ffffff"
     bordercolor="#666666"
     borderopacity="1.0"
     inkscape:pageopacity="0"
     inkscape:pageshadow="2"
     inkscape:zoom="0.5"
     inkscape:cx="223.41288"
     inkscape:cy="508.96652"
     inkscape:document-units="px"
     inkscape:current-layer="layer1"
     inkscape:document-rotation="0"
     showgrid="true"
     units="px"
     showborder="true"
     showguides="true"
     inkscape:snap-text-baseline="false"
     inkscape:guide-bbox="true"
     inkscape:window-width="1920"
     inkscape:window-height="1017"
     inkscape:window-x="-8"
     inkscape:window-y="-8"
     inkscape:window-maximized="1" />
  <metadata
     id="metadata914">
    <rdf:RDF>
      <cc:Work
         rdf:about="">
        <dc:format>image/svg+xml</dc:format>
        <dc:type
           rdf:resource="http://purl.org/dc/dcmitype/StillImage" />
        <dc:title></dc:title>
      </cc:Work>
    </rdf:RDF>
  </metadata>
  <g
     inkscape:label="Layer 1"
     inkscape:groupmode="layer"
     id="layer1">
    <text
       xml:space="preserve"
       id="text943"
       style="fill:black;fill-opacity:1;line-height:1.25;stroke:none;font-family:sans-serif;font-style:normal;font-weight:normal;font-size:10.58333344px;white-space:pre;shape-inside:url(#rect945);" />
    <path
       style="opacity:0.561;fill:url(#linearGradient3717);fill-opacity:1;stroke-width:0.529167"
       d="m 156.79898,303.57771 c -49.24912,-4.30159 -92.530964,-32.93734 -113.889814,-75.35078 -9.14669,-18.16306 -13.46585,-35.29462 -14.00827,-55.5625 -0.81661,-30.5131 8.21507,-58.48074 26.96359,-83.495791 5.55044,-7.405637 18.0261,-20.188553 24.7345,-25.343681 C 101.01929,48.1328 123.07676,38.705214 149.22542,34.493344 c 8.01486,-1.290984 27.83845,-1.579743 36.82706,-0.536435 47.31775,5.492168 87.99032,32.877748 109.10044,73.459291 19.45323,37.39641 19.95895,80.35794 1.39137,118.19517 -13.86277,28.24967 -36.91505,50.85168 -65.78792,64.50283 -22.65215,10.71002 -49.50826,15.59902 -73.95739,13.46351 z m 26.16371,-7.30424 c 0.60652,-0.98137 -9.97878,-7.22681 -15.31579,-9.03648 -1.83072,-0.62076 -2.69365,-1.21663 -2.80104,-1.93413 -0.12634,-0.84402 0.48983,-1.26465 3.31178,-2.26089 4.11076,-1.45121 5.72575,-2.61848 6.62429,-4.78774 1.39688,-3.37235 -2.36568,-5.95725 -10.19649,-7.005 -5.19778,-0.69546 -7.52187,-0.0204 -7.52187,2.18448 0,1.6475 1.12543,2.02197 1.59838,0.53183 0.34425,-1.0846 0.61345,-1.13736 4.67512,-0.91622 4.59154,0.25 9.08479,1.79443 9.67192,3.32449 0.4754,1.23886 -1.24212,2.86882 -4.8167,4.57118 -3.66375,1.74482 -4.1925,1.42663 -3.89533,-2.34416 0.13383,-1.69807 -0.0116,-2.21972 -0.61881,-2.21972 -0.6075,0 -0.83149,0.80587 -0.9546,3.4345 -0.10828,2.3122 -0.41089,3.57447 -0.92604,3.86276 -1.05531,0.59061 -0.95761,1.55705 0.29314,2.89957 0.63757,0.68435 1.05833,1.86743 1.05833,2.97574 0,2.23475 0.82129,4.55451 1.61249,4.55451 0.39474,0 0.46404,-0.93077 0.2167,-2.91041 -0.22379,-1.79118 -0.16467,-2.91042 0.15373,-2.91042 1.15729,0 8.03994,3.15751 11.47252,5.26317 2.98248,1.82957 4.74325,2.76604 5.96021,3.16995 0.0556,0.0185 0.23471,-0.18272 0.39806,-0.44701 z m 10.08421,-2.4583 c 2.99624,-1.39473 3.76939,-1.98406 5.43639,-4.14398 1.36605,-1.76996 1.60124,-4.55883 0.38444,-4.55883 -0.43656,0 -0.79375,0.45797 -0.79375,1.01772 0,3.52086 -9.43212,8.66868 -12.68926,6.92552 -1.3471,-0.72096 -3.15727,-4.39703 -3.17412,-6.44599 -0.009,-1.11948 0.29433,-1.48037 1.46047,-1.73648 3.07188,-0.67472 9.64041,-5.92871 9.64041,-7.7111 0,-1.32974 -0.0572,-1.3199 -1.90206,0.32697 -2.08821,1.8641 -6.54504,4.7411 -8.10264,5.23047 l -1.27345,0.4001 0.34878,-4.42756 c 0.537,-6.81665 0.74365,-7.2708 3.79932,-8.34959 4.17673,-1.4746 11.01554,-5.00314 11.27147,-5.81559 0.36201,-1.14928 -2.46406,-0.39296 -7.69976,2.06057 -2.48911,1.16642 -5.05885,2.12079 -5.71053,2.12079 -1.77114,0 -2.32278,1.02214 -3.17978,5.89188 -1.52377,8.65846 -0.6916,16.32828 2.05119,18.90498 2.53013,2.37696 5.4977,2.46777 10.13288,0.31012 z m 16.28219,-2.14265 c 0.17544,-0.17545 0.12999,-0.83029 -0.10101,-1.45521 -0.231,-0.62492 -0.57316,-4.9462 -0.76036,-9.60287 l -0.34035,-8.46666 1.50893,3.50173 c 3.24571,7.53227 6.85262,12.4105 8.88654,12.01878 2.15784,-0.41556 2.33736,-2.12728 1.91318,-18.24188 -0.36622,-13.91251 -0.48308,-15.27307 -1.32571,-15.4346 -0.86813,-0.16642 -0.90514,0.76686 -0.61105,15.4093 0.21575,10.74251 0.13849,15.69434 -0.24862,15.93361 -0.97894,0.60499 -3.4551,-3.54508 -7.24004,-12.13443 -3.30127,-7.49173 -4.48856,-9.41239 -5.3104,-8.59054 -0.1461,0.1461 -0.0118,3.80693 0.29844,8.13517 0.31025,4.32824 0.70109,10.42937 0.86855,13.55807 0.26397,4.93194 0.42673,5.68854 1.22369,5.68854 0.50557,0 1.06276,-0.14356 1.23821,-0.31901 z m -81.49897,-6.84673 c 0.15042,-1.75834 1.03464,-5.56834 1.96492,-8.46667 0.93029,-2.89832 1.73128,-6.0321 1.77998,-6.96396 0.0727,-1.39192 0.2774,-1.65632 1.14688,-1.48169 0.58208,0.11691 2.96333,0.35171 5.29167,0.52178 2.32833,0.17005 5.48349,0.44754 7.01145,0.61661 3.04197,0.33663 3.73525,-0.35991 1.32292,-1.32911 -2.05139,-0.82417 -16.00663,-2.18956 -22.37904,-2.18956 -5.19928,0 -5.33896,0.0313 -5.17443,1.16073 0.16345,1.12197 0.357,1.15599 5.79673,1.01865 l 5.62764,-0.14208 -0.44067,2.28864 c -0.24236,1.25876 -1.04899,4.05853 -1.79251,6.22171 -1.93336,5.62491 -2.61861,9.9949 -1.87427,11.9526 0.79483,2.09053 1.3549,1.04529 1.71873,-3.20765 z m -16.94651,-5.02925 c 1.39444,-0.64233 2.41885,-2.37376 1.78152,-3.01109 -0.17031,-0.17031 -0.81304,0.14528 -1.42828,0.70133 -0.9001,0.81349 -1.90864,1.00758 -5.16262,0.99361 -4.69361,-0.0201 -8.233134,-1.48283 -9.098914,-3.75999 -0.61394,-1.6148 0.1258,-4.84198 1.489954,-6.49999 0.8015,-0.97414 1.15573,-1.04828 2.76773,-0.57925 4.14023,1.20462 12.17573,0.52927 12.17399,-1.02317 -1.8e-4,-0.16008 -2.32189,-0.33065 -5.15937,-0.37905 -2.83747,-0.0484 -5.83725,-0.294 -6.66617,-0.54575 l -1.50714,-0.45776 4.24701,-4.40391 c 2.33585,-2.42215 4.48703,-4.25556 4.7804,-4.07426 0.86203,0.53276 12.26484,2.9551 13.91075,2.9551 4.0507,0 -0.29991,-2.00792 -6.95932,-3.21194 -1.89177,-0.34202 -4.22806,-1.06952 -5.19177,-1.61665 -1.25771,-0.71406 -2.01886,-0.85209 -2.6971,-0.48911 -1.71938,0.92019 -9.59445,9.62499 -11.113034,12.28389 l -1.49211,2.6126 -0.34191,-2.54045 c -0.44584,-3.31258 -2.20142,-7.01305 -5.89866,-12.43326 l -2.99769,-4.39467 1.48731,-0.17853 c 1.92477,-0.23104 6.73165,0.6924 12.305744,2.36402 3.15271,0.94547 4.59749,1.16583 5.00062,0.7627 0.40314,-0.40315 0.39585,-0.73804 -0.0252,-1.15913 -0.94935,-0.94936 -12.792054,-3.65958 -16.552814,-3.78814 l -3.43959,-0.11759 0.0519,1.88916 c 0.037,1.34783 0.84379,3.06267 2.81546,5.98456 5.09744,7.55407 7.17479,13.47041 5.02005,14.29726 -3.36494,1.29125 -15.29576,-9.36373 -15.29576,-13.66009 0,-2.32397 -1.53158,-2.21451 -1.75611,0.12552 -0.19272,2.00853 0.50944,3.24908 4.35949,7.70202 4.84919,5.6085 11.52424,9.09886 13.79573,7.21368 0.69265,-0.57484 0.79881,-0.33896 0.79881,1.77474 0,3.18426 1.84951,5.32435 5.825604,6.74082 3.18491,1.13461 7.61364,1.10098 10.17152,-0.0772 z m 130.45462,-9.10397 c -1.54016,-1.81901 -3.9336,-5.24365 -5.31877,-7.61032 -1.38516,-2.36664 -3.08159,-4.91061 -3.76984,-5.65324 l -1.25136,-1.35025 5.86477,-5.45924 c 4.94647,-4.60444 5.68048,-5.48607 4.68779,-5.63054 -2.18922,-0.31861 -20.45809,17.00674 -20.45809,19.40148 0,0.50779 0.50215,0.94946 1.19063,1.04725 0.71577,0.10165 1.1941,-0.10941 1.19933,-0.52917 0.005,-0.38404 1.43061,-2.24607 3.16849,-4.13785 l 3.15979,-3.43958 1.07814,1.26566 c 0.59298,0.69612 2.41725,3.55362 4.05395,6.35 3.17948,5.43229 6.43742,9.05309 8.14589,9.05309 0.85991,0 0.54354,-0.59767 -1.75072,-3.30729 z m 18.41735,-5.74305 c 0.20296,-0.3284 -1.26781,-2.23782 -3.36268,-4.36562 l -3.72341,-3.78196 1.54968,-4.99084 c 0.85232,-2.74496 1.62698,-5.06814 1.72147,-5.16263 0.0945,-0.0945 2.7126,1.02671 5.81804,2.49153 5.9675,2.81487 8.81114,3.69336 8.81114,2.72206 0,-0.31583 -3.10929,-2.0555 -6.90953,-3.86594 l -6.90951,-3.29169 0.33454,-2.15333 0.33454,-2.15333 -1.26943,1.53366 -1.26943,1.53366 -4.51239,-2.4597 c -2.48182,-1.35284 -5.14819,-2.45971 -5.92527,-2.45971 -4.14262,0 -2.29705,7.20602 4.01136,15.66229 1.67515,2.24549 1.95658,2.97728 1.67891,4.36562 -0.35193,1.75969 0.44071,2.31789 1.24658,0.87789 0.34891,-0.62346 1.16013,-0.0656 3.84747,2.64584 3.54373,3.57549 3.93037,3.81904 4.52792,2.8522 z m 18.63213,-14.99487 c 0.55853,-0.71006 2.15069,-4.34147 3.53816,-8.06979 2.5554,-6.86678 4.66434,-11.12003 8.32163,-16.78268 1.89994,-2.9417 2.56521,-5.07733 1.58165,-5.07733 -0.66064,0 -6.07523,7.77475 -7.92337,11.37708 -0.89591,1.74625 -2.57337,5.67532 -3.72766,8.73125 -2.90899,7.7013 -3.26769,8.39833 -4.52774,8.79825 -0.9253,0.29368 -2.60641,-1.19347 -10.1576,-8.98566 -4.97684,-5.13568 -9.29783,-9.33759 -9.60218,-9.33759 -0.30436,0 -0.69495,0.36892 -0.86798,0.81982 -0.21608,0.56312 2.43041,3.70186 8.452,10.02405 4.82163,5.06233 9.04537,9.31805 9.3861,9.45716 0.34073,0.1391 1.49521,0.27172 2.56548,0.2947 1.46315,0.0314 2.19795,-0.27856 2.96151,-1.24926 z M 72.521966,246.56124 c 4.0058,-1.70332 10.2003,-4.22365 13.76556,-5.60073 5.95446,-2.29992 7.44418,-3.34539 6.02063,-4.22519 -0.25392,-0.15693 -1.86127,0.29524 -3.57188,1.00483 -1.71061,0.70959 -6.68208,2.70994 -11.04771,4.44522 -4.36562,1.73528 -9.00906,3.64507 -10.31875,4.24398 -1.30968,0.59891 -2.92314,1.09415 -3.58546,1.10055 -1.18538,0.0114 -1.19055,-0.0153 -0.33047,-1.70818 0.48055,-0.94588 4.09046,-4.97722 8.02201,-8.95853 9.26258,-9.37979 9.19251,-10.13637 -0.51087,-5.51652 -3.86914,1.84212 -9.3817,4.38072 -12.25014,5.64133 -5.15309,2.26467 -6.30396,3.21462 -5.21443,4.30415 0.3921,0.39211 1.00466,0.24453 2.05464,-0.49499 1.17642,-0.82857 8.83781,-4.35168 14.98972,-6.89304 0.43657,-0.18035 -1.16559,1.78896 -3.56033,4.37624 -2.39475,2.58728 -4.71647,5.4678 -5.15938,6.40116 -0.83927,1.76864 -1.05931,4.01708 -0.45251,4.62388 0.95163,0.95164 4.52768,0.0715 11.14937,-2.74416 z m -13.8727,-17.30099 c 5.41386,-1.41013 9.03197,-3.34665 11.88094,-6.35901 1.46325,-1.54717 2.66045,-3.06542 2.66045,-3.37388 0,-1.18356 -1.53702,-0.46093 -4.45996,2.09687 -3.6136,3.16218 -5.87735,4.38365 -10.20025,5.50382 -4.87232,1.26255 -7.68986,1.10601 -9.64086,-0.53565 -1.00254,-0.84359 -1.6281,-1.86829 -1.6281,-2.66692 0,-1.94332 1.88381,-5.25666 3.83471,-6.74468 1.69282,-1.29118 8.19262,-4.12104 11.15699,-4.8575 1.62234,-0.40304 2.39165,-1.5851 1.56779,-2.40896 -0.63746,-0.63746 -8.24998,2.04722 -12.16412,4.28988 -4.8518,2.77991 -7.87992,9.15512 -6.00901,12.65095 1.669,3.11857 6.69362,4.04805 13.00142,2.40508 z M 291.19616,219.23687 c 1.79925,-0.93042 7.08422,-8.64537 8.53138,-12.45403 1.13226,-2.97982 1.3276,-7.39016 0.36979,-8.34799 -0.98838,-0.98838 -4.04625,-0.74983 -6.57464,0.5129 -1.26415,0.63135 -3.90958,2.81575 -5.87877,4.85422 -1.96919,2.03847 -4.40304,4.558 -5.40856,5.59897 l -1.82819,1.89266 -0.39026,-2.11667 c -0.21466,-1.16416 -0.404,-5.50995 -0.42077,-9.65729 -0.0254,-6.29316 -0.16013,-7.54062 -0.81415,-7.54062 -0.43103,0 -0.93935,0.62029 -1.12964,1.37843 -0.47225,1.88161 0.29337,17.15138 0.91853,18.31951 1.14093,2.13185 2.90049,1.12444 9.3155,-5.3335 6.63961,-6.68405 8.95139,-8.12925 10.51018,-6.57045 2.07452,2.07452 -1.72694,11.07302 -7.17981,16.99549 -1.26696,1.37608 -1.78973,1.63843 -2.34559,1.17712 -0.54716,-0.45411 -0.79616,-0.38275 -1.05955,0.30363 -0.31877,0.83069 0.42746,1.74815 1.43761,1.7675 0.23273,0.004 1.10885,-0.34649 1.94694,-0.77988 z M 46.578266,216.58069 c 0.62687,-0.43908 1.66654,-2.16548 2.31037,-3.83645 1.01114,-2.62428 1.16656,-4.02894 1.14097,-10.31158 -0.0163,-4.0004 0.17005,-7.39686 0.41411,-7.54769 0.44321,-0.27393 8.28017,7.18826 11.5875,11.03336 1.797,2.0892 3.13625,2.04993 2.46271,-0.0722 -0.42832,-1.3495 -12.74467,-13.33793 -13.70278,-13.33793 -1.95534,0 -2.36435,1.64258 -2.5694,10.31875 -0.16179,6.84567 -0.38572,8.84659 -1.16964,10.45104 -1.224,2.5052 -2.48179,2.5481 -4.3131,0.14713 -2.97355,-3.89853 -5.51399,-16.09652 -3.72496,-17.88555 1.0464,-1.0464 1.0818,-1.97303 0.0754,-1.97303 -1.24856,0 -2.41125,2.19746 -2.41125,4.5572 0,3.39563 1.51324,10.59315 2.86377,13.62106 1.34183,3.00844 3.68516,5.63424 5.02814,5.63424 0.47764,0 1.38133,-0.35925 2.0082,-0.79833 z"
       id="path981" />
    <path
       style="fill:#000000;stroke-width:0.449326"
       d="m 173.81529,186.98978 c -15.22175,-0.3233 -56.63572,-2.22536 -62.50792,-2.87087 -13.844289,-1.52182 -35.926975,-6.22886 -38.244142,-8.15195 -0.861199,-0.71473 -0.687914,-1.61758 0.424746,-2.21306 1.267503,-0.67835 20.110219,-0.25692 32.703746,0.73143 4.81902,0.3782 12.25191,0.8138 16.51755,0.96801 8.90967,0.32208 8.89119,0.32843 10.67652,-3.67018 1.17695,-2.63605 1.84055,-5.80676 2.25681,-10.78311 0.54553,-6.5221 2.48024,-12.1699 5.9811,-17.46009 l 1.18769,-1.79471 0.16168,-13.17589 c 0.15743,-12.83012 0.13862,-13.17589 -0.71671,-13.17589 -0.59872,0 -2.65142,2.25314 -6.44729,7.07688 -3.06292,3.89229 -6.94616,8.79555 -8.62944,10.89616 -2.96318,3.69782 -5.95743,8.38154 -11.34629,17.74836 -6.22172,10.81451 -11.02267,15.50176 -15.877816,15.50176 -1.426863,0 -1.998245,-0.26912 -2.93504,-1.38246 -1.442649,-1.71448 -1.506441,-3.70238 -0.249387,-7.77223 0.718514,-2.32628 1.458157,-3.54668 3.460013,-5.70891 2.19947,-2.37569 3.3139,-3.11491 8.18497,-5.42919 3.10136,-1.47348 6.0704,-2.89025 6.59786,-3.14839 2.93178,-1.43478 6.90565,-5.56533 17.14933,-17.82545 6.20633,-7.42801 11.77245,-14.47619 12.36917,-15.6626 1.18747,-2.36098 2.54794,-6.71118 2.54794,-8.14725 0,-1.41923 -1.95748,-2.61676 -5.27421,-3.22665 -4.14852,-0.76283 -5.95894,-1.5517 -5.95894,-2.59657 0,-0.46788 0.79092,-2.75292 1.75761,-5.07784 2.8304,-6.807274 2.6525,-8.625374 -0.56733,-5.798304 -1.77657,1.559854 -4.2584,2.694484 -5.89377,2.694484 -1.43086,0 -1.42888,-0.30113 0.0115,-1.63545 1.1785,-1.092204 1.13403,-1.959174 -0.10053,-1.959174 -0.53902,0 -0.6225,-0.27892 -0.36983,-1.23564 0.74275,-2.81228 0.58455,-2.90319 -3.82353,-2.19764 l -2.02196,0.32364 1.57264,-1.38333 c 0.86495,-0.76082 2.07813,-1.48572 2.69596,-1.61089 2.98964,-0.60565 4.41688,-1.15485 5.17334,-1.99074 1.288,-1.42322 0.2904,-2.1064 -1.98117,-1.35671 -0.9945,0.32821 -2.13845,0.43363 -2.59711,0.23933 -0.65476,-0.27736 -0.42199,-0.46862 1.15671,-0.95036 2.47788,-0.75613 3.73827,-1.85106 3.39085,-2.94571 -0.16431,-0.5177 8.9e-4,-0.92633 0.44297,-1.09601 0.92557,-0.35516 0.88955,-1.18369 -0.14442,-3.32379 l -0.84939,-1.75803 2.41127,-0.70099 c 1.5681,-0.45586 2.59868,-1.05119 2.94727,-1.70253 0.29481,-0.55086 0.48877,-1.08662 0.431,-1.19055 -0.0578,-0.10398 0.7674,-0.52209 1.83371,-0.92921 1.06631,-0.4071 2.79323,-1.28198 3.83762,-1.94415 4.34945,-2.757684 8.21828,-2.627119 10.84632,0.36604 2.61086,2.97359 2.88508,7.07407 0.72017,10.76823 -1.96065,3.3456 -1.16175,6.93938 2.0091,9.03776 1.34282,0.88863 2.21283,1.99772 3.21608,4.09983 0.96322,2.01828 1.59365,2.83962 2.10407,2.74133 1.12457,-0.21657 6.78151,-7.01302 8.23685,-9.89603 0.83775,-1.65957 1.78167,-2.82403 2.65547,-3.27589 2.08466,-1.078 4.33823,-3.74179 5.87645,-6.94611 1.31525,-2.73989 1.43273,-2.85621 2.04245,-2.02239 0.96463,1.31922 0.58602,3.02924 -0.81911,3.69951 -1.73898,0.82951 -3.32484,2.89356 -5.40114,7.02972 -1.00389,1.99984 -2.28964,4.19011 -2.85721,4.86724 -1.1255,1.34276 -1.78337,3.95326 -2.4318,9.649814 -0.48874,4.29364 -1.09938,6.78625 -1.94625,7.9444 -0.57296,0.78358 -0.76356,0.73817 -3.83108,-0.91252 -2.75009,-1.47988 -3.29379,-1.63732 -3.67159,-1.06313 -0.92298,1.40274 0.20268,14.24401 2.08754,23.81427 1.57379,7.99085 0.68125,30.96666 -1.64077,42.23666 -0.7383,3.58337 -1.34244,7.324 -1.34254,8.31253 -2.4e-4,2.49327 1.33266,4.49863 3.44399,5.18152 0.94584,0.30594 2.60277,1.06757 3.68202,1.69252 l 1.96227,1.13627 44.31831,-0.41055 c 52.85659,-0.48965 55.97949,-0.47798 60.08491,0.22454 3.38495,0.57923 6.02569,1.85575 6.02569,2.91284 0,1.6638 -6.6746,3.48987 -15.72641,4.3025 -11.98145,1.07565 -73.69262,3.7072 -82.22666,3.50639 -2.10058,-0.0494 -6.04343,-0.1371 -8.76184,-0.19485 z m -19.12845,-10.92014 c 1.9708,-1.05475 2.81859,-6.51549 2.42986,-15.65115 -0.19668,-4.62233 -0.098,-8.56068 0.30167,-12.02987 l 0.59408,-5.15773 -1.48018,-6.61717 c -2.20474,-9.85638 -2.24307,-9.98711 -2.92747,-9.98711 -0.99943,0 -1.21383,0.68369 -2.0849,6.64812 -1.01946,6.98047 -1.24956,7.67407 -4.0804,12.2991 -5.42793,8.86813 -9.78988,20.84769 -9.02484,24.78565 0.34327,1.76699 2.95548,4.1584 5.69219,5.21101 2.51365,0.96684 9.12343,1.27868 10.57999,0.49915 z m -8.16302,-81.12051 c 0.14857,-1.13702 -2.40645,-5.61656 -3.20356,-5.61656 -0.85065,0 -2.23722,3.29359 -1.87155,4.44565 0.65631,2.06789 4.83201,3.03128 5.07511,1.17091 z m 21.6531,-5.81501 c 0.70263,-0.8466 2.29847,-6.129314 1.99829,-6.614984 -0.47916,-0.77532 -1.41882,-0.32348 -2.7361,1.31569 -1.85571,2.309204 -2.17211,3.498384 -1.28928,4.845734 0.8291,1.26538 1.27126,1.36431 2.02709,0.45356 z"
       id="path3775" />
  </g>
</svg>
